
<svg xmlns="http://www.w3.org/2000/svg" xmlns:xlink="http://www.w3.org/1999/xlink" xmlns:serif="http://www.serif.com/" width="556px" height="112px" version="1.1" xml:space="preserve" style="fill-rule:evenodd;clip-rule:evenodd;stroke-linejoin:round;stroke-miterlimit:2;"><link xmlns="" type="text/css" rel="stylesheet" id="dark-mode-custom-link"/><link xmlns="" type="text/css" rel="stylesheet" id="dark-mode-general-link"/><style xmlns="" lang="en" type="text/css" id="dark-mode-custom-style"/><style xmlns="" lang="en" type="text/css" id="dark-mode-native-style"/><style xmlns="" lang="en" type="text/css" id="dark-mode-native-sheet"/><g transform="matrix(5.55556,0,0,5.55556,0,0)"><g transform="matrix(0.994976,0,0,0.994976,-86.4326,-4.27105)"><path d="M102.86,13.634C102.253,12.863 101.43,12.289 100.497,11.985L100.497,11.925C100.497,9.102 98.289,6.801 95.567,6.801C92.843,6.801 90.634,9.097 90.634,11.926L90.634,11.996C88.64,12.649 87.184,14.591 87.184,16.882C87.184,19.705 89.394,22.007 92.116,22.007C93.422,22.004 94.673,21.472 95.581,20.532C96.487,21.472 97.737,22.005 99.042,22.007C101.759,22.007 103.975,19.711 103.975,16.882C103.975,15.702 103.575,14.548 102.86,13.634ZM99.042,20.711C97.011,20.711 95.357,18.993 95.357,16.881C95.362,16.533 95.082,16.243 94.734,16.235C94.39,16.24 94.11,16.525 94.11,16.869C94.11,16.873 94.11,16.878 94.11,16.882C94.11,17.839 94.367,18.737 94.806,19.504C94.124,20.273 93.144,20.715 92.116,20.717C90.084,20.717 88.429,18.998 88.429,16.887C88.429,14.777 90.084,13.058 92.116,13.058C92.556,13.058 92.984,13.14 93.394,13.292C93.399,13.292 93.403,13.297 93.408,13.297C93.55,13.347 93.75,13.444 93.812,13.498C93.922,13.599 94.067,13.655 94.216,13.655C94.399,13.655 94.572,13.571 94.686,13.428C94.91,13.157 94.879,12.753 94.618,12.518C94.346,12.279 93.922,12.116 93.818,12.078C93.276,11.872 92.701,11.767 92.121,11.768C92.042,11.768 91.964,11.768 91.885,11.773C91.969,9.733 93.587,8.102 95.572,8.102C97.603,8.102 99.257,9.82 99.257,11.932C99.261,13.158 98.686,14.316 97.707,15.054C97.429,15.266 97.365,15.663 97.56,15.952C97.68,16.126 97.875,16.224 98.069,16.224C98.194,16.224 98.319,16.186 98.43,16.104C99.36,15.407 100.028,14.416 100.325,13.292C101.749,13.841 102.738,15.271 102.738,16.887C102.733,18.993 101.079,20.711 99.042,20.711Z" style="fill:rgb(1,120,212);fill-rule:nonzero;"/></g><g transform="matrix(1.25766,-0.000448747,0.000448747,1.25766,-13.8924,-2.88425)"><text x="28.821px" y="15.08px" style="font-family:'ArialMT', 'Arial', sans-serif;font-size:12px;fill: #fff;">Cloud</text><text x="60.174px" y="15.08px" style="font-family:'ArialMT', 'Arial', sans-serif;font-size:12px;fill: #fff;">Panel</text></g></g></svg>
